<svg xmlns="http://www.w3.org/2000/svg" xmlns:xlink="http://www.w3.org/1999/xlink" width="337" zoomAndPan="magnify" viewBox="0 0 252.75 74.999997" height="100" preserveAspectRatio="xMidYMid meet" version="1.0"><defs><g/></defs><g fill="#01ffff" fill-opacity="1"><g transform="translate(-1.283485, 51.782498)"><g><path d="M 30.46875 -24.0625 C 32.414062 -24.0625 34.191406 -23.585938 35.796875 -22.640625 C 37.410156 -21.703125 38.6875 -20.429688 39.625 -18.828125 C 40.5625 -17.222656 41.03125 -15.441406 41.03125 -13.484375 L 41.03125 -2.203125 C 41.03125 -1.585938 40.816406 -1.066406 40.390625 -0.640625 C 39.960938 -0.210938 39.460938 0 38.890625 0 C 38.265625 0 37.738281 -0.210938 37.3125 -0.640625 C 36.882812 -1.066406 36.671875 -1.585938 36.671875 -2.203125 L 36.671875 -13.484375 C 36.671875 -14.617188 36.390625 -15.65625 35.828125 -16.59375 C 35.265625 -17.53125 34.507812 -18.28125 33.5625 -18.84375 C 32.625 -19.414062 31.59375 -19.703125 30.46875 -19.703125 C 29.34375 -19.703125 28.304688 -19.414062 27.359375 -18.84375 C 26.421875 -18.28125 25.671875 -17.53125 25.109375 -16.59375 C 24.546875 -15.65625 24.265625 -14.617188 24.265625 -13.484375 L 24.265625 -2.203125 C 24.265625 -1.585938 24.050781 -1.066406 23.625 -0.640625 C 23.195312 -0.210938 22.675781 0 22.0625 0 C 21.445312 0 20.925781 -0.210938 20.5 -0.640625 C 20.070312 -1.066406 19.859375 -1.585938 19.859375 -2.203125 L 19.859375 -13.484375 C 19.859375 -14.617188 19.582031 -15.65625 19.03125 -16.59375 C 18.476562 -17.53125 17.734375 -18.28125 16.796875 -18.84375 C 15.859375 -19.414062 14.828125 -19.703125 13.703125 -19.703125 C 12.535156 -19.703125 11.476562 -19.414062 10.53125 -18.84375 C 9.59375 -18.28125 8.847656 -17.53125 8.296875 -16.59375 C 7.753906 -15.65625 7.484375 -14.617188 7.484375 -13.484375 L 7.484375 -2.203125 C 7.484375 -1.585938 7.269531 -1.066406 6.84375 -0.640625 C 6.414062 -0.210938 5.894531 0 5.28125 0 C 4.664062 0 4.144531 -0.210938 3.71875 -0.640625 C 3.289062 -1.066406 3.078125 -1.585938 3.078125 -2.203125 L 3.078125 -21.859375 C 3.078125 -22.472656 3.289062 -22.992188 3.71875 -23.421875 C 4.144531 -23.847656 4.664062 -24.0625 5.28125 -24.0625 C 5.863281 -24.0625 6.359375 -23.863281 6.765625 -23.46875 C 7.179688 -23.070312 7.40625 -22.601562 7.4375 -22.0625 C 8.320312 -22.675781 9.296875 -23.160156 10.359375 -23.515625 C 11.421875 -23.878906 12.535156 -24.0625 13.703125 -24.0625 C 15.410156 -24.0625 16.988281 -23.679688 18.4375 -22.921875 C 19.894531 -22.171875 21.101562 -21.164062 22.0625 -19.90625 C 23.050781 -21.164062 24.269531 -22.171875 25.71875 -22.921875 C 27.175781 -23.679688 28.757812 -24.0625 30.46875 -24.0625 Z M 30.46875 -24.0625 "/></g></g></g><g fill="#01ffff" fill-opacity="1"><g transform="translate(40.311312, 51.782498)"><g><path d="M 27.140625 -12.0625 C 27.140625 -12.0625 27.140625 -12.050781 27.140625 -12.03125 C 27.140625 -12.007812 27.140625 -12 27.140625 -12 L 27.140625 -2.203125 C 27.140625 -1.585938 26.925781 -1.066406 26.5 -0.640625 C 26.070312 -0.210938 25.550781 0 24.9375 0 C 24.351562 0 23.847656 -0.210938 23.421875 -0.640625 C 22.992188 -1.066406 22.78125 -1.585938 22.78125 -2.203125 L 22.78125 -2.71875 C 21.71875 -1.863281 20.535156 -1.195312 19.234375 -0.71875 C 17.929688 -0.238281 16.5625 0 15.125 0 C 12.90625 0 10.878906 -0.535156 9.046875 -1.609375 C 7.222656 -2.691406 5.769531 -4.144531 4.6875 -5.96875 C 3.613281 -7.800781 3.078125 -9.832031 3.078125 -12.0625 C 3.078125 -14.25 3.613281 -16.253906 4.6875 -18.078125 C 5.769531 -19.910156 7.222656 -21.363281 9.046875 -22.4375 C 10.878906 -23.519531 12.90625 -24.0625 15.125 -24.0625 C 16.5625 -24.0625 17.929688 -23.820312 19.234375 -23.34375 C 20.535156 -22.863281 21.71875 -22.195312 22.78125 -21.34375 L 22.78125 -21.859375 C 22.78125 -22.472656 22.992188 -22.992188 23.421875 -23.421875 C 23.847656 -23.847656 24.351562 -24.0625 24.9375 -24.0625 C 25.550781 -24.0625 26.070312 -23.847656 26.5 -23.421875 C 26.925781 -22.992188 27.140625 -22.472656 27.140625 -21.859375 Z M 22.78125 -12 L 22.78125 -12.0625 C 22.78125 -13.457031 22.425781 -14.726562 21.71875 -15.875 C 21.019531 -17.019531 20.097656 -17.941406 18.953125 -18.640625 C 17.804688 -19.347656 16.53125 -19.703125 15.125 -19.703125 C 13.726562 -19.703125 12.445312 -19.347656 11.28125 -18.640625 C 10.125 -17.941406 9.203125 -17.019531 8.515625 -15.875 C 7.828125 -14.726562 7.484375 -13.457031 7.484375 -12.0625 C 7.484375 -10.65625 7.828125 -9.367188 8.515625 -8.203125 C 9.203125 -7.046875 10.125 -6.125 11.28125 -5.4375 C 12.445312 -4.75 13.726562 -4.40625 15.125 -4.40625 C 16.53125 -4.40625 17.804688 -4.75 18.953125 -5.4375 C 20.097656 -6.125 21.019531 -7.039062 21.71875 -8.1875 C 22.425781 -9.332031 22.78125 -10.601562 22.78125 -12 Z M 22.78125 -12 "/></g></g></g><g fill="#01ffff" fill-opacity="1"><g transform="translate(67.955483, 51.782498)"><g><path d="M 15.03125 -13.796875 L 23.75 -3.640625 C 24.125 -3.160156 24.296875 -2.617188 24.265625 -2.015625 C 24.234375 -1.421875 23.976562 -0.921875 23.5 -0.515625 C 23.082031 -0.171875 22.601562 0 22.0625 0 C 21.375 0 20.828125 -0.253906 20.421875 -0.765625 L 11.546875 -11.1875 L 7.484375 -8.109375 L 7.484375 -2.203125 C 7.484375 -1.585938 7.269531 -1.066406 6.84375 -0.640625 C 6.414062 -0.210938 5.894531 0 5.28125 0 C 4.664062 0 4.144531 -0.210938 3.71875 -0.640625 C 3.289062 -1.066406 3.078125 -1.585938 3.078125 -2.203125 L 3.078125 -33.8125 C 3.078125 -34.382812 3.289062 -34.882812 3.71875 -35.3125 C 4.144531 -35.738281 4.664062 -35.953125 5.28125 -35.953125 C 5.894531 -35.953125 6.414062 -35.738281 6.84375 -35.3125 C 7.269531 -34.882812 7.484375 -34.382812 7.484375 -33.8125 L 7.484375 -13.640625 L 20.71875 -23.640625 C 21.238281 -23.984375 21.796875 -24.117188 22.390625 -24.046875 C 22.984375 -23.984375 23.453125 -23.695312 23.796875 -23.1875 C 24.171875 -22.707031 24.316406 -22.164062 24.234375 -21.5625 C 24.148438 -20.96875 23.867188 -20.484375 23.390625 -20.109375 Z M 15.03125 -13.796875 "/></g></g></g><g fill="#01ffff" fill-opacity="1"><g transform="translate(92.778753, 51.782498)"><g><path d="M 23.640625 -20.5625 C 25.972656 -18.207031 27.140625 -15.375 27.140625 -12.0625 C 27.140625 -11.4375 26.925781 -10.910156 26.5 -10.484375 C 26.070312 -10.054688 25.550781 -9.84375 24.9375 -9.84375 L 7.796875 -9.84375 C 8.171875 -8.613281 8.800781 -7.539062 9.6875 -6.625 C 10.6875 -5.625 11.84375 -4.960938 13.15625 -4.640625 C 14.46875 -4.316406 15.773438 -4.316406 17.078125 -4.640625 C 18.378906 -4.960938 19.523438 -5.625 20.515625 -6.625 C 20.960938 -7.0625 21.484375 -7.28125 22.078125 -7.28125 C 22.679688 -7.28125 23.203125 -7.0625 23.640625 -6.625 C 24.054688 -6.207031 24.265625 -5.691406 24.265625 -5.078125 C 24.265625 -4.460938 24.054688 -3.953125 23.640625 -3.546875 C 22.453125 -2.347656 21.117188 -1.457031 19.640625 -0.875 C 18.171875 -0.289062 16.664062 0 15.125 0 C 13.59375 0 12.082031 -0.289062 10.59375 -0.875 C 9.101562 -1.457031 7.78125 -2.347656 6.625 -3.546875 C 5.457031 -4.671875 4.582031 -5.957031 4 -7.40625 C 3.414062 -8.863281 3.109375 -10.34375 3.078125 -11.84375 C 3.078125 -11.914062 3.078125 -11.988281 3.078125 -12.0625 C 3.078125 -12.09375 3.078125 -12.140625 3.078125 -12.203125 C 3.109375 -13.710938 3.414062 -15.191406 4 -16.640625 C 4.582031 -18.097656 5.457031 -19.40625 6.625 -20.5625 C 8.15625 -22.101562 9.953125 -23.140625 12.015625 -23.671875 C 14.085938 -24.203125 16.148438 -24.203125 18.203125 -23.671875 C 20.253906 -23.140625 22.066406 -22.101562 23.640625 -20.5625 Z M 7.796875 -14.265625 L 22.421875 -14.265625 C 22.078125 -15.460938 21.441406 -16.519531 20.515625 -17.4375 C 19.523438 -18.425781 18.378906 -19.082031 17.078125 -19.40625 C 15.773438 -19.738281 14.46875 -19.738281 13.15625 -19.40625 C 11.84375 -19.082031 10.6875 -18.425781 9.6875 -17.4375 C 8.800781 -16.519531 8.171875 -15.460938 7.796875 -14.265625 Z M 7.796875 -14.265625 "/></g></g></g><g fill="#01ffff" fill-opacity="1"><g transform="translate(120.422925, 51.782498)"><g><path d="M 39.703125 -23.90625 C 40.285156 -23.664062 40.6875 -23.265625 40.90625 -22.703125 C 41.132812 -22.140625 41.128906 -21.582031 40.890625 -21.03125 L 32.46875 -1.328125 C 32.09375 -0.441406 31.425781 0 30.46875 0 C 29.507812 0 28.828125 -0.441406 28.421875 -1.328125 L 22.0625 -16.265625 L 15.703125 -1.328125 C 15.316406 -0.441406 14.648438 0 13.703125 0 C 12.703125 0 12.015625 -0.441406 11.640625 -1.328125 L 3.234375 -21.03125 C 2.992188 -21.582031 2.992188 -22.140625 3.234375 -22.703125 C 3.472656 -23.265625 3.863281 -23.664062 4.40625 -23.90625 C 4.957031 -24.144531 5.515625 -24.148438 6.078125 -23.921875 C 6.640625 -23.703125 7.039062 -23.300781 7.28125 -22.71875 L 13.703125 -7.796875 L 20.0625 -22.71875 C 20.0625 -22.757812 20.066406 -22.785156 20.078125 -22.796875 C 20.097656 -22.816406 20.109375 -22.84375 20.109375 -22.875 C 20.179688 -22.976562 20.234375 -23.046875 20.265625 -23.078125 C 20.265625 -23.117188 20.296875 -23.171875 20.359375 -23.234375 C 20.429688 -23.335938 20.484375 -23.40625 20.515625 -23.4375 C 20.546875 -23.4375 20.597656 -23.488281 20.671875 -23.59375 C 20.773438 -23.625 20.828125 -23.660156 20.828125 -23.703125 C 20.859375 -23.734375 20.941406 -23.765625 21.078125 -23.796875 C 21.117188 -23.835938 21.144531 -23.863281 21.15625 -23.875 C 21.175781 -23.894531 21.1875 -23.90625 21.1875 -23.90625 C 21.1875 -23.90625 21.203125 -23.90625 21.234375 -23.90625 C 21.265625 -23.9375 21.351562 -23.96875 21.5 -24 C 21.53125 -24 21.550781 -24 21.5625 -24 C 21.582031 -24 21.609375 -24.019531 21.640625 -24.0625 C 21.679688 -24.0625 21.769531 -24.0625 21.90625 -24.0625 C 21.90625 -24.0625 21.921875 -24.0625 21.953125 -24.0625 C 21.984375 -24.0625 22.019531 -24.0625 22.0625 -24.0625 C 22.09375 -24.0625 22.125 -24.0625 22.15625 -24.0625 C 22.195312 -24.0625 22.21875 -24.0625 22.21875 -24.0625 C 22.351562 -24.0625 22.453125 -24.039062 22.515625 -24 C 22.484375 -24.039062 22.519531 -24.039062 22.625 -24 C 22.757812 -23.96875 22.863281 -23.9375 22.9375 -23.90625 C 22.894531 -23.90625 22.894531 -23.90625 22.9375 -23.90625 C 22.96875 -23.90625 22.988281 -23.894531 23 -23.875 C 23.019531 -23.863281 23.03125 -23.859375 23.03125 -23.859375 C 23.164062 -23.785156 23.25 -23.734375 23.28125 -23.703125 C 23.28125 -23.703125 23.332031 -23.664062 23.4375 -23.59375 C 23.539062 -23.53125 23.609375 -23.476562 23.640625 -23.4375 C 23.640625 -23.40625 23.675781 -23.351562 23.75 -23.28125 C 23.851562 -23.1875 23.90625 -23.117188 23.90625 -23.078125 C 23.9375 -23.046875 23.96875 -22.976562 24 -22.875 C 24.070312 -22.769531 24.109375 -22.71875 24.109375 -22.71875 L 30.46875 -7.796875 L 36.828125 -22.71875 C 37.066406 -23.300781 37.46875 -23.703125 38.03125 -23.921875 C 38.601562 -24.148438 39.160156 -24.144531 39.703125 -23.90625 Z M 39.703125 -23.90625 "/></g></g></g><g fill="#01ffff" fill-opacity="1"><g transform="translate(162.017721, 51.782498)"><g><path d="M 5.28125 -24.0625 C 5.894531 -24.0625 6.414062 -23.847656 6.84375 -23.421875 C 7.269531 -22.992188 7.484375 -22.472656 7.484375 -21.859375 L 7.484375 -2.203125 C 7.484375 -1.585938 7.269531 -1.066406 6.84375 -0.640625 C 6.414062 -0.210938 5.894531 0 5.28125 0 C 4.664062 0 4.144531 -0.210938 3.71875 -0.640625 C 3.289062 -1.066406 3.078125 -1.585938 3.078125 -2.203125 L 3.078125 -21.859375 C 3.078125 -22.472656 3.289062 -22.992188 3.71875 -23.421875 C 4.144531 -23.847656 4.664062 -24.0625 5.28125 -24.0625 Z M 5.28125 -30.421875 C 5.894531 -30.421875 6.414062 -30.207031 6.84375 -29.78125 C 7.269531 -29.351562 7.484375 -28.832031 7.484375 -28.21875 C 7.484375 -27.601562 7.269531 -27.078125 6.84375 -26.640625 C 6.414062 -26.210938 5.894531 -26 5.28125 -26 C 4.664062 -26 4.144531 -26.210938 3.71875 -26.640625 C 3.289062 -27.078125 3.078125 -27.601562 3.078125 -28.21875 C 3.078125 -28.789062 3.289062 -29.300781 3.71875 -29.75 C 4.144531 -30.195312 4.664062 -30.421875 5.28125 -30.421875 Z M 5.28125 -30.421875 "/></g></g></g><g fill="#01ffff" fill-opacity="1"><g transform="translate(170.018177, 51.782498)"><g><path d="M 13.703125 -24.0625 C 15.648438 -24.0625 17.414062 -23.585938 19 -22.640625 C 20.59375 -21.703125 21.867188 -20.429688 22.828125 -18.828125 C 23.785156 -17.222656 24.265625 -15.441406 24.265625 -13.484375 L 24.265625 -2.203125 C 24.265625 -1.585938 24.050781 -1.066406 23.625 -0.640625 C 23.195312 -0.210938 22.675781 0 22.0625 0 C 21.445312 0 20.925781 -0.210938 20.5 -0.640625 C 20.070312 -1.066406 19.859375 -1.585938 19.859375 -2.203125 L 19.859375 -13.484375 C 19.859375 -14.617188 19.582031 -15.65625 19.03125 -16.59375 C 18.476562 -17.53125 17.734375 -18.28125 16.796875 -18.84375 C 15.859375 -19.414062 14.828125 -19.703125 13.703125 -19.703125 C 12.535156 -19.703125 11.476562 -19.414062 10.53125 -18.84375 C 9.59375 -18.28125 8.847656 -17.53125 8.296875 -16.59375 C 7.753906 -15.65625 7.484375 -14.617188 7.484375 -13.484375 L 7.484375 -2.203125 C 7.484375 -1.585938 7.269531 -1.066406 6.84375 -0.640625 C 6.414062 -0.210938 5.894531 0 5.28125 0 C 4.664062 0 4.144531 -0.210938 3.71875 -0.640625 C 3.289062 -1.066406 3.078125 -1.585938 3.078125 -2.203125 L 3.078125 -21.859375 C 3.078125 -22.472656 3.289062 -22.992188 3.71875 -23.421875 C 4.144531 -23.847656 4.664062 -24.0625 5.28125 -24.0625 C 5.863281 -24.0625 6.359375 -23.863281 6.765625 -23.46875 C 7.179688 -23.070312 7.40625 -22.601562 7.4375 -22.0625 C 8.320312 -22.675781 9.296875 -23.160156 10.359375 -23.515625 C 11.421875 -23.878906 12.535156 -24.0625 13.703125 -24.0625 Z M 13.703125 -24.0625 "/></g></g></g><g fill="#01ffff" fill-opacity="1"><g transform="translate(194.841447, 51.782498)"><g><path d="M 14.109375 -5.28125 C 14.828125 -5.832031 15.132812 -6.429688 15.03125 -7.078125 C 14.894531 -7.929688 14.226562 -8.582031 13.03125 -9.03125 L 7.90625 -10.921875 C 6.601562 -11.441406 5.53125 -12.171875 4.6875 -13.109375 C 3.851562 -14.046875 3.332031 -15.113281 3.125 -16.3125 C 2.957031 -17.4375 3.09375 -18.519531 3.53125 -19.5625 C 3.976562 -20.613281 4.695312 -21.515625 5.6875 -22.265625 C 6.71875 -23.085938 7.898438 -23.632812 9.234375 -23.90625 C 10.566406 -24.175781 11.90625 -24.175781 13.25 -23.90625 C 14.601562 -23.632812 15.796875 -23.085938 16.828125 -22.265625 C 18.566406 -20.898438 19.4375 -19.222656 19.4375 -17.234375 C 19.4375 -16.617188 19.222656 -16.097656 18.796875 -15.671875 C 18.367188 -15.242188 17.847656 -15.03125 17.234375 -15.03125 C 16.617188 -15.03125 16.097656 -15.242188 15.671875 -15.671875 C 15.242188 -16.097656 15.03125 -16.617188 15.03125 -17.234375 C 15.03125 -17.816406 14.722656 -18.332031 14.109375 -18.78125 C 13.359375 -19.394531 12.410156 -19.703125 11.265625 -19.703125 C 10.117188 -19.703125 9.148438 -19.394531 8.359375 -18.78125 C 7.671875 -18.257812 7.378906 -17.660156 7.484375 -16.984375 C 7.617188 -16.160156 8.269531 -15.523438 9.4375 -15.078125 L 14.5625 -13.125 C 15.894531 -12.644531 16.976562 -11.925781 17.8125 -10.96875 C 18.65625 -10.019531 19.164062 -8.945312 19.34375 -7.75 C 19.507812 -6.65625 19.367188 -5.578125 18.921875 -4.515625 C 18.484375 -3.453125 17.785156 -2.546875 16.828125 -1.796875 C 16.035156 -1.179688 15.160156 -0.726562 14.203125 -0.4375 C 13.242188 -0.144531 12.253906 0 11.234375 0 C 10.242188 0 9.269531 -0.144531 8.3125 -0.4375 C 7.351562 -0.726562 6.476562 -1.179688 5.6875 -1.796875 C 3.945312 -3.160156 3.078125 -4.851562 3.078125 -6.875 C 3.078125 -7.457031 3.289062 -7.960938 3.71875 -8.390625 C 4.144531 -8.816406 4.664062 -9.03125 5.28125 -9.03125 C 5.894531 -9.03125 6.414062 -8.816406 6.84375 -8.390625 C 7.269531 -7.960938 7.484375 -7.457031 7.484375 -6.875 C 7.484375 -6.289062 7.773438 -5.757812 8.359375 -5.28125 C 9.148438 -4.695312 10.117188 -4.40625 11.265625 -4.40625 C 12.410156 -4.40625 13.359375 -4.695312 14.109375 -5.28125 Z M 14.109375 -5.28125 "/></g></g></g><g fill="#01ffff" fill-opacity="1"><g transform="translate(214.740959, 51.782498)"><g><path d="M 1.640625 -0.109375 C 0.992188 -0.109375 0.441406 -0.335938 -0.015625 -0.796875 C -0.484375 -1.253906 -0.71875 -1.8125 -0.71875 -2.46875 C -0.71875 -3.113281 -0.484375 -3.664062 -0.015625 -4.125 C 0.441406 -4.59375 0.992188 -4.828125 1.640625 -4.828125 C 2.328125 -4.828125 2.898438 -4.59375 3.359375 -4.125 C 3.816406 -3.664062 4.046875 -3.113281 4.046875 -2.46875 C 4.046875 -1.8125 3.816406 -1.253906 3.359375 -0.796875 C 2.898438 -0.335938 2.328125 -0.109375 1.640625 -0.109375 Z M 1.640625 -0.109375 "/></g></g></g><g fill="#01ffff" fill-opacity="1"><g transform="translate(215.509654, 51.782498)"><g><path d="M 27.140625 -12.0625 C 27.140625 -12.0625 27.140625 -12.050781 27.140625 -12.03125 C 27.140625 -12.007812 27.140625 -12 27.140625 -12 L 27.140625 -2.203125 C 27.140625 -1.585938 26.925781 -1.066406 26.5 -0.640625 C 26.070312 -0.210938 25.550781 0 24.9375 0 C 24.351562 0 23.847656 -0.210938 23.421875 -0.640625 C 22.992188 -1.066406 22.78125 -1.585938 22.78125 -2.203125 L 22.78125 -2.71875 C 21.71875 -1.863281 20.535156 -1.195312 19.234375 -0.71875 C 17.929688 -0.238281 16.5625 0 15.125 0 C 12.90625 0 10.878906 -0.535156 9.046875 -1.609375 C 7.222656 -2.691406 5.769531 -4.144531 4.6875 -5.96875 C 3.613281 -7.800781 3.078125 -9.832031 3.078125 -12.0625 C 3.078125 -14.25 3.613281 -16.253906 4.6875 -18.078125 C 5.769531 -19.910156 7.222656 -21.363281 9.046875 -22.4375 C 10.878906 -23.519531 12.90625 -24.0625 15.125 -24.0625 C 16.5625 -24.0625 17.929688 -23.820312 19.234375 -23.34375 C 20.535156 -22.863281 21.71875 -22.195312 22.78125 -21.34375 L 22.78125 -21.859375 C 22.78125 -22.472656 22.992188 -22.992188 23.421875 -23.421875 C 23.847656 -23.847656 24.351562 -24.0625 24.9375 -24.0625 C 25.550781 -24.0625 26.070312 -23.847656 26.5 -23.421875 C 26.925781 -22.992188 27.140625 -22.472656 27.140625 -21.859375 Z M 22.78125 -12 L 22.78125 -12.0625 C 22.78125 -13.457031 22.425781 -14.726562 21.71875 -15.875 C 21.019531 -17.019531 20.097656 -17.941406 18.953125 -18.640625 C 17.804688 -19.347656 16.53125 -19.703125 15.125 -19.703125 C 13.726562 -19.703125 12.445312 -19.347656 11.28125 -18.640625 C 10.125 -17.941406 9.203125 -17.019531 8.515625 -15.875 C 7.828125 -14.726562 7.484375 -13.457031 7.484375 -12.0625 C 7.484375 -10.65625 7.828125 -9.367188 8.515625 -8.203125 C 9.203125 -7.046875 10.125 -6.125 11.28125 -5.4375 C 12.445312 -4.75 13.726562 -4.40625 15.125 -4.40625 C 16.53125 -4.40625 17.804688 -4.75 18.953125 -5.4375 C 20.097656 -6.125 21.019531 -7.039062 21.71875 -8.1875 C 22.425781 -9.332031 22.78125 -10.601562 22.78125 -12 Z M 22.78125 -12 "/></g></g></g><g fill="#01ffff" fill-opacity="1"><g transform="translate(243.153826, 51.782498)"><g><path d="M 5.28125 -24.0625 C 5.894531 -24.0625 6.414062 -23.847656 6.84375 -23.421875 C 7.269531 -22.992188 7.484375 -22.472656 7.484375 -21.859375 L 7.484375 -2.203125 C 7.484375 -1.585938 7.269531 -1.066406 6.84375 -0.640625 C 6.414062 -0.210938 5.894531 0 5.28125 0 C 4.664062 0 4.144531 -0.210938 3.71875 -0.640625 C 3.289062 -1.066406 3.078125 -1.585938 3.078125 -2.203125 L 3.078125 -21.859375 C 3.078125 -22.472656 3.289062 -22.992188 3.71875 -23.421875 C 4.144531 -23.847656 4.664062 -24.0625 5.28125 -24.0625 Z M 5.28125 -30.421875 C 5.894531 -30.421875 6.414062 -30.207031 6.84375 -29.78125 C 7.269531 -29.351562 7.484375 -28.832031 7.484375 -28.21875 C 7.484375 -27.601562 7.269531 -27.078125 6.84375 -26.640625 C 6.414062 -26.210938 5.894531 -26 5.28125 -26 C 4.664062 -26 4.144531 -26.210938 3.71875 -26.640625 C 3.289062 -27.078125 3.078125 -27.601562 3.078125 -28.21875 C 3.078125 -28.789062 3.289062 -29.300781 3.71875 -29.75 C 4.144531 -30.195312 4.664062 -30.421875 5.28125 -30.421875 Z M 5.28125 -30.421875 "/></g></g></g></svg>